<?xml version="1.0" encoding="UTF-8" standalone="no"?>
<svg
   version="1.1"
   width="1080"
   height="1053.4969"
   id="svg35"
   sodipodi:docname="math.svg"
   inkscape:version="1.4.2 (f4327f4, 2025-05-13)"
   xmlns:inkscape="http://www.inkscape.org/namespaces/inkscape"
   xmlns:sodipodi="http://sodipodi.sourceforge.net/DTD/sodipodi-0.dtd"
   xmlns="http://www.w3.org/2000/svg"
   xmlns:svg="http://www.w3.org/2000/svg">
  <sodipodi:namedview
     id="namedview35"
     pagecolor="#ffffff"
     bordercolor="#000000"
     borderopacity="0.25"
     inkscape:showpageshadow="2"
     inkscape:pageopacity="0.0"
     inkscape:pagecheckerboard="0"
     inkscape:deskcolor="#d1d1d1"
     inkscape:zoom="1.114061"
     inkscape:cx="573.57721"
     inkscape:cy="516.57854"
     inkscape:window-width="2560"
     inkscape:window-height="1351"
     inkscape:window-x="-9"
     inkscape:window-y="-9"
     inkscape:window-maximized="1"
     inkscape:current-layer="svg35"
     showguides="false" />
  <defs
     id="defs1">
    <clipPath
       id="yACvSEmlgoxq">
      <path
         fill="none"
         stroke="none"
         d="M 0,0 H 1652 V 1017 H 0 Z"
         id="path1" />
    </clipPath>
  </defs>
  <g
     transform="matrix(1.2620508,0,0,1.2620508,-519.64942,-111.06047)"
     clip-path="url(#yACvSEmlgoxq)"
     id="g35">
    <g
       id="g34">
      <path
         fill="none"
         stroke="#000000"
         paint-order="fill stroke markers"
         d="M 1064.4457,370.83333 587.55434,646.16667"
         stroke-opacity="0.698039"
         stroke-linecap="round"
         stroke-linejoin="round"
         stroke-miterlimit="10"
         stroke-width="2.5"
         id="path2" />
      <path
         fill="none"
         stroke="#000000"
         paint-order="fill stroke markers"
         d="M 688.33333,270.05434 963.66667,746.94566"
         stroke-opacity="0.698039"
         stroke-linecap="round"
         stroke-linejoin="round"
         stroke-miterlimit="10"
         stroke-width="2.5"
         id="path3" />
      <path
         fill="#000000"
         stroke="none"
         paint-order="stroke fill markers"
         d="m 1222,504.25 v 3 H 413 c -0.69036,0 -1.25,0.55964 -1.25,1.25 0,0.69036 0.55964,1.25 1.25,1.25 h 809 v 3 l 17,-4.25 z"
         fill-opacity="0.698039"
         id="path4" />
      <path
         fill="#000000"
         stroke="none"
         paint-order="stroke fill markers"
         d="m 826,95.5 -4.25,17 h 3 v 809 c 0,0.69036 0.55964,1.25 1.25,1.25 0.69036,0 1.25,-0.55964 1.25,-1.25 v -809 h 3 z"
         fill-opacity="0.698039"
         id="path5" />
      <path
         fill="#000000"
         stroke="none"
         paint-order="stroke fill markers"
         d="m 1069.4457,370.83333 c 0,2.76143 -2.2386,5 -5,5 -2.7615,0 -5,-2.23857 -5,-5 0,-2.76142 2.2385,-5 5,-5 2.7614,0 5,2.23858 5,5 z"
         fill-opacity="1"
         id="path6" />
      <path
         fill="none"
         stroke="#000000"
         paint-order="fill stroke markers"
         d="m 1069.4457,370.83333 c 0,2.76143 -2.2386,5 -5,5 -2.7615,0 -5,-2.23857 -5,-5 0,-2.76142 2.2385,-5 5,-5 2.7614,0 5,2.23858 5,5 z"
         stroke-opacity="1"
         stroke-linecap="round"
         stroke-linejoin="round"
         stroke-miterlimit="10"
         id="path7" />
      <path
         fill="#6e6d73"
         stroke="none"
         paint-order="stroke fill markers"
         d="m 693.33333,270.05434 c 0,2.76142 -2.23857,5 -5,5 -2.76142,0 -5,-2.23858 -5,-5 0,-2.76142 2.23858,-5 5,-5 2.76143,0 5,2.23858 5,5 z"
         fill-opacity="1"
         id="path8" />
      <path
         fill="none"
         stroke="#000000"
         paint-order="fill stroke markers"
         d="m 693.33333,270.05434 c 0,2.76142 -2.23857,5 -5,5 -2.76142,0 -5,-2.23858 -5,-5 0,-2.76142 2.23858,-5 5,-5 2.76143,0 5,2.23858 5,5 z"
         stroke-opacity="1"
         stroke-linecap="round"
         stroke-linejoin="round"
         stroke-miterlimit="10"
         id="path9" />
      <path
         fill="#6e6d73"
         stroke="none"
         paint-order="stroke fill markers"
         d="m 592.55434,646.16667 c 0,2.76142 -2.23858,5 -5,5 -2.76142,0 -5,-2.23858 -5,-5 0,-2.76143 2.23858,-5 5,-5 2.76142,0 5,2.23857 5,5 z"
         fill-opacity="1"
         id="path10" />
      <path
         fill="none"
         stroke="#000000"
         paint-order="fill stroke markers"
         d="m 592.55434,646.16667 c 0,2.76142 -2.23858,5 -5,5 -2.76142,0 -5,-2.23858 -5,-5 0,-2.76143 2.23858,-5 5,-5 2.76142,0 5,2.23857 5,5 z"
         stroke-opacity="1"
         stroke-linecap="round"
         stroke-linejoin="round"
         stroke-miterlimit="10"
         id="path11" />
      <path
         fill="#6e6d73"
         stroke="none"
         paint-order="stroke fill markers"
         d="m 968.66667,746.94566 c 0,2.76142 -2.23858,5 -5,5 -2.76143,0 -5,-2.23858 -5,-5 0,-2.76142 2.23857,-5 5,-5 2.76142,0 5,2.23858 5,5 z"
         fill-opacity="1"
         id="path12" />
      <path
         fill="none"
         stroke="#000000"
         paint-order="fill stroke markers"
         d="m 968.66667,746.94566 c 0,2.76142 -2.23858,5 -5,5 -2.76143,0 -5,-2.23858 -5,-5 0,-2.76142 2.23857,-5 5,-5 2.76142,0 5,2.23858 5,5 z"
         stroke-opacity="1"
         stroke-linecap="round"
         stroke-linejoin="round"
         stroke-miterlimit="10"
         id="path13" />
      <g
         transform="scale(25)"
         id="g17">
        <g
           transform="translate(33.88,4.203)"
           id="g14">
          <path
             fill="#000000"
             stroke="none"
             paint-order="stroke fill markers"
             d="m 0.225,-0.605 v 0 0.527 q 0,0.03 0.012,0.038 h 0.001 v 0 h 0.001 v 0.001 H 0.24 q 0.015,0.008 0.067,0.008 H 0.333 V 0 Q 0.298,-0.003 0.18,-0.003 0.063,-0.003 0.028,0 v -0.031 h 0.026 q 0.067,0 0.077,-0.017 v 0 q 0.005,-0.008 0.005,-0.03 v -0.527 q 0,-0.03 -0.012,-0.038 H 0.123 Q 0.108,-0.652 0.054,-0.652 H 0.028 v -0.031 q 0.035,0.003 0.153,0.003 0.117,0 0.152,-0.003 v 0.031 H 0.307 q -0.067,0 -0.077,0.017 v 0 q -0.005,0.008 -0.005,0.03 z"
             id="path14" />
        </g>
        <g
           transform="translate(34.241,4.203)"
           id="g15">
          <path
             fill="#000000"
             stroke="none"
             paint-order="stroke fill markers"
             d="M 0.11,-0.344 Q 0.11,-0.383 0.095,-0.392 0.083,-0.399 0.052,-0.4 h -0.02 v -0.031 l 0.141,-0.011 v 0.105 q 0.047,-0.105 0.148,-0.105 0.117,0 0.133,0.098 0.03,-0.068 0.094,-0.09 0.024,-0.008 0.051,-0.008 0.075,0 0.105,0.037 0.027,0.031 0.03,0.085 0.001,0.019 0.001,0.068 v 0.191 q 0.001,0.024 0.029,0.028 0.012,0.002 0.049,0.002 V 0 Q 0.711,-0.003 0.701,-0.003 0.693,-0.003 0.588,0 v -0.031 q 0.059,0 0.069,-0.009 L 0.659,-0.042 Q 0.666,-0.05 0.666,-0.076 v -0.233 q 0,-0.099 -0.057,-0.109 Q 0.601,-0.42 0.592,-0.42 0.531,-0.42 0.49,-0.367 0.457,-0.324 0.457,-0.26 v 0.184 q 0,0.034 0.016,0.04 0.011,0.005 0.062,0.005 V 0 Q 0.433,-0.003 0.423,-0.003 0.415,-0.003 0.31,0 v -0.031 q 0.059,0 0.069,-0.009 L 0.381,-0.042 Q 0.388,-0.05 0.388,-0.076 v -0.233 q 0,-0.099 -0.057,-0.109 -0.008,-0.002 -0.017,-0.002 -0.061,0 -0.102,0.053 -0.033,0.043 -0.033,0.107 v 0.184 q 0,0.034 0.016,0.04 0.011,0.005 0.062,0.005 V 0 Q 0.155,-0.003 0.145,-0.003 0.137,-0.003 0.032,0 v -0.031 q 0.059,0 0.069,-0.009 L 0.103,-0.042 Q 0.11,-0.05 0.11,-0.076 Z"
             id="path15" />
        </g>
        <g
           transform="translate(35.407,4.203)"
           id="g16">
          <path
             fill="#000000"
             stroke="none"
             paint-order="stroke fill markers"
             d="m 0.133,-0.083 v 0 q 0.009,-0.003 0.027,-0.003 0.026,0 0.07,0.017 0.039,0.013 0.059,0.013 0.053,0 0.091,-0.038 0.02,-0.019 0.029,-0.046 0.006,-0.013 0.014,-0.013 0.012,0 0.012,0.01 0,0.026 -0.032,0.074 -0.054,0.08 -0.125,0.08 -0.034,0 -0.064,-0.037 -0.028,-0.033 -0.045,-0.037 -0.005,-0.001 -0.013,-0.001 -0.044,0 -0.085,0.062 -0.007,0.013 -0.016,0.013 -0.012,0 -0.012,-0.01 0,-0.012 0.046,-0.068 0.026,-0.032 0.057,-0.063 l 0.09,-0.084 q 0.099,-0.084 0.139,-0.131 -0.036,0 -0.077,-0.015 -0.043,-0.015 -0.063,-0.015 -0.058,0 -0.08,0.038 -0.003,0.004 -0.005,0.009 -0.004,0.011 -0.013,0.011 -0.012,0 -0.012,-0.011 0,-0.022 0.029,-0.06 0.04,-0.054 0.092,-0.054 0.033,0 0.062,0.035 l 0.001,10e-4 q 0.002,0.003 0.006,0.007 0.024,0.027 0.039,0.031 0.006,0.001 0.012,0.001 0.034,0 0.071,-0.058 l 0.004,-0.006 q 0.006,-0.011 0.015,-0.011 0.011,0 0.011,0.01 0,0.012 -0.042,0.064 -0.03,0.037 -0.075,0.081 -0.006,0.006 -0.095,0.087 l -0.003,0.003 q -0.065,0.056 -0.119,0.114 z"
             id="path16" />
        </g>
      </g>
      <g
         transform="scale(25)"
         id="g21">
        <g
           transform="translate(48.72,21.923)"
           id="g18">
          <path
             fill="#000000"
             stroke="none"
             paint-order="stroke fill markers"
             d="m 0.224,-0.353 h 0.111 q 0.167,-0.01 0.172,-0.15 0,-0.12 -0.109,-0.142 -0.032,-0.007 -0.093,-0.007 -0.049,0 -0.059,0.002 -0.019,0.003 -0.021,0.021 l -0.001,0.001 v 0 0.001 0.015 0.259 m 0.211,0.013 q 0.099,0.034 0.122,0.116 l 0.013,0.08 q 0.015,0.1 0.031,0.123 0.006,0.009 0.014,0.014 Q 0.626,0 0.641,0 q 0.043,0 0.06,-0.054 0.004,-0.015 0.006,-0.035 0.002,-0.015 0.012,-0.016 0.013,0 0.013,0.017 0,0.047 -0.029,0.081 Q 0.699,-0.002 0.694,0.002 0.671,0.022 0.637,0.022 0.559,0.022 0.511,-0.02 0.474,-0.054 0.471,-0.115 0.47,-0.137 0.47,-0.163 0.47,-0.237 0.458,-0.262 0.45,-0.28 0.432,-0.297 0.397,-0.331 0.339,-0.331 H 0.224 v 0.253 q 0,0.03 0.012,0.038 0.014,0.009 0.067,0.009 H 0.327 V 0 Q 0.291,-0.003 0.181,-0.003 0.071,-0.003 0.035,0 v -0.031 h 0.024 q 0.065,0 0.075,-0.017 0.004,-0.007 0.004,-0.03 v -0.527 q 0,-0.03 -0.012,-0.038 Q 0.112,-0.652 0.059,-0.652 H 0.035 v -0.031 h 0.314 q 0.125,0 0.203,0.068 0.058,0.05 0.058,0.112 0,0.077 -0.09,0.129 -0.038,0.022 -0.085,0.034 z"
             id="path17" />
        </g>
        <g
           transform="translate(49.456,21.923)"
           id="g19">
          <path
             fill="#000000"
             stroke="none"
             paint-order="stroke fill markers"
             d="m 0.39,-0.231 v 0 H 0.111 q 0,0.102 0.03,0.15 0.048,0.062 0.113,0.067 0.069,0 0.111,-0.056 0.015,-0.02 0.024,-0.047 0.003,-0.014 0.013,-0.014 0.013,0 0.013,0.012 0,0.022 -0.028,0.06 -0.041,0.056 -0.108,0.067 -0.015,0.003 -0.031,0.003 -0.094,0 -0.16,-0.072 -0.06,-0.066 -0.06,-0.159 0,-0.104 0.072,-0.172 0.058,-0.056 0.136,-0.056 0.113,0 0.158,0.096 0.021,0.045 0.021,0.1 0,0.017 -0.007,0.02 -0.003,0.001 -0.018,0.001 M 0.112,-0.252 v 0 h 0.237 q 0,-0.095 -0.042,-0.143 -0.028,-0.031 -0.071,-0.031 -0.051,0 -0.086,0.047 -0.035,0.045 -0.038,0.127 z"
             id="path18" />
        </g>
        <g
           transform="translate(50.233,21.923)"
           id="g20">
          <path
             fill="#000000"
             stroke="none"
             paint-order="stroke fill markers"
             d="m 0.133,-0.083 v 0 q 0.009,-0.003 0.027,-0.003 0.026,0 0.07,0.017 0.039,0.013 0.059,0.013 0.053,0 0.091,-0.038 0.02,-0.019 0.029,-0.046 0.006,-0.013 0.014,-0.013 0.012,0 0.012,0.01 0,0.026 -0.032,0.074 -0.054,0.08 -0.125,0.08 -0.034,0 -0.064,-0.037 -0.028,-0.033 -0.045,-0.037 -0.005,-0.001 -0.013,-0.001 -0.044,0 -0.085,0.062 -0.007,0.013 -0.016,0.013 -0.012,0 -0.012,-0.01 0,-0.012 0.046,-0.068 0.026,-0.032 0.057,-0.063 l 0.09,-0.084 q 0.099,-0.084 0.139,-0.131 -0.036,0 -0.077,-0.015 -0.043,-0.015 -0.063,-0.015 -0.058,0 -0.08,0.038 -0.003,0.004 -0.005,0.009 -0.004,0.011 -0.013,0.011 -0.012,0 -0.012,-0.011 0,-0.022 0.029,-0.06 0.04,-0.054 0.092,-0.054 0.033,0 0.062,0.035 l 0.001,10e-4 q 0.002,0.003 0.006,0.007 0.024,0.027 0.039,0.031 0.006,0.001 0.012,0.001 0.034,0 0.071,-0.058 l 0.004,-0.006 q 0.006,-0.011 0.015,-0.011 0.011,0 0.011,0.01 0,0.012 -0.042,0.064 -0.03,0.037 -0.075,0.081 -0.006,0.006 -0.095,0.087 l -0.003,0.003 q -0.065,0.056 -0.119,0.114 z"
             id="path19" />
        </g>
      </g>
      <g
         transform="scale(35)"
         id="g23">
        <g
           transform="translate(31.142857,10.459571)"
           id="g22">
          <path
             fill="#000000"
             stroke="none"
             paint-order="stroke fill markers"
             d="m 0.133,-0.083 v 0 q 0.009,-0.003 0.027,-0.003 0.026,0 0.07,0.017 0.039,0.013 0.059,0.013 0.053,0 0.091,-0.038 0.02,-0.019 0.029,-0.046 0.006,-0.013 0.014,-0.013 0.012,0 0.012,0.01 0,0.026 -0.032,0.074 -0.054,0.08 -0.125,0.08 -0.034,0 -0.064,-0.037 -0.028,-0.033 -0.045,-0.037 -0.005,-0.001 -0.013,-0.001 -0.044,0 -0.085,0.062 -0.007,0.013 -0.016,0.013 -0.012,0 -0.012,-0.01 0,-0.012 0.046,-0.068 0.026,-0.032 0.057,-0.063 l 0.09,-0.084 q 0.099,-0.084 0.139,-0.131 -0.036,0 -0.077,-0.015 -0.043,-0.015 -0.063,-0.015 -0.058,0 -0.08,0.038 -0.003,0.004 -0.005,0.009 -0.004,0.011 -0.013,0.011 -0.012,0 -0.012,-0.011 0,-0.022 0.029,-0.06 0.04,-0.054 0.092,-0.054 0.033,0 0.062,0.035 l 0.001,10e-4 q 0.002,0.003 0.006,0.007 0.024,0.027 0.039,0.031 0.006,0.001 0.012,0.001 0.034,0 0.071,-0.058 l 0.004,-0.006 q 0.006,-0.011 0.015,-0.011 0.011,0 0.011,0.01 0,0.012 -0.042,0.064 -0.03,0.037 -0.075,0.081 -0.006,0.006 -0.095,0.087 l -0.003,0.003 q -0.065,0.056 -0.119,0.114 z"
             id="path21" />
        </g>
      </g>
      <g
         transform="scale(35)"
         id="g26">
        <g
           transform="translate(18.428571,6.9742857)"
           id="g24">
          <path
             fill="#000000"
             stroke="none"
             paint-order="stroke fill markers"
             d="m 0.284,-0.625 q 0,0.031 -0.031,0.047 -0.011,0.006 -0.022,0.006 -0.03,0 -0.037,-0.027 -0.001,-0.005 -0.001,-0.009 0,-0.028 0.028,-0.045 0.013,-0.008 0.026,-0.008 0.03,0 0.036,0.027 v 0.001 q 0.001,0.004 0.001,0.008 m -0.076,0.376 -0.039,0.105 q -0.028,0.081 -0.029,0.1 0,0.033 0.024,0.033 0.063,0 0.098,-0.112 l 0.004,-0.012 q 0.005,-0.016 0.01,-0.017 v -0.001 h 0.005 q 0.012,0 0.012,0.01 0,0.018 -0.022,0.064 -0.043,0.09 -0.109,0.09 -0.053,0 -0.074,-0.044 -0.008,-0.018 -0.008,-0.038 0,-0.02 0.023,-0.08 0.07,-0.188 0.069,-0.185 0.011,-0.028 0.011,-0.052 0,-0.032 -0.025,-0.032 -0.055,0 -0.09,0.091 v 0.001 q -0.006,0.015 -0.011,0.032 -0.011,0.017 -0.016,0.018 -0.012,0 -0.012,-0.01 0,-0.018 0.022,-0.063 0.043,-0.091 0.11,-0.091 0.053,0 0.074,0.045 0.008,0.017 0.008,0.037 0,0.02 -0.013,0.053 -0.017,0.046 -0.022,0.058 z"
             id="path23" />
        </g>
        <g
           transform="translate(18.773571,6.9742857)"
           id="g25">
          <path
             fill="#000000"
             stroke="none"
             paint-order="stroke fill markers"
             d="m 0.133,-0.083 v 0 q 0.009,-0.003 0.027,-0.003 0.026,0 0.07,0.017 0.039,0.013 0.059,0.013 0.053,0 0.091,-0.038 0.02,-0.019 0.029,-0.046 0.006,-0.013 0.014,-0.013 0.012,0 0.012,0.01 0,0.026 -0.032,0.074 -0.054,0.08 -0.125,0.08 -0.034,0 -0.064,-0.037 -0.028,-0.033 -0.045,-0.037 -0.005,-0.001 -0.013,-0.001 -0.044,0 -0.085,0.062 -0.007,0.013 -0.016,0.013 -0.012,0 -0.012,-0.01 0,-0.012 0.046,-0.068 0.026,-0.032 0.057,-0.063 l 0.09,-0.084 q 0.099,-0.084 0.139,-0.131 -0.036,0 -0.077,-0.015 -0.043,-0.015 -0.063,-0.015 -0.058,0 -0.08,0.038 -0.003,0.004 -0.005,0.009 -0.004,0.011 -0.013,0.011 -0.012,0 -0.012,-0.011 0,-0.022 0.029,-0.06 0.04,-0.054 0.092,-0.054 0.033,0 0.062,0.035 l 0.001,10e-4 q 0.002,0.003 0.006,0.007 0.024,0.027 0.039,0.031 0.006,0.001 0.012,0.001 0.034,0 0.071,-0.058 l 0.004,-0.006 q 0.006,-0.011 0.015,-0.011 0.011,0 0.011,0.01 0,0.012 -0.042,0.064 -0.03,0.037 -0.075,0.081 -0.006,0.006 -0.095,0.087 l -0.003,0.003 q -0.065,0.056 -0.119,0.114 z"
             id="path24" />
        </g>
      </g>
      <g
         transform="scale(35)"
         id="g29">
        <g
           transform="translate(15.2,19.268714)"
           id="g27">
          <path
             fill="#000000"
             stroke="none"
             paint-order="stroke fill markers"
             d="M 0.661,-0.23 H 0.116 q -0.032,0 -0.033,-0.02 0,-0.02 0.033,-0.02 h 0.545 q 0.032,0 0.033,0.02 0,0.02 -0.033,0.02 z"
             id="path26" />
        </g>
        <g
           transform="translate(15.978,19.268714)"
           id="g28">
          <path
             fill="#000000"
             stroke="none"
             paint-order="stroke fill markers"
             d="m 0.133,-0.083 v 0 q 0.009,-0.003 0.027,-0.003 0.026,0 0.07,0.017 0.039,0.013 0.059,0.013 0.053,0 0.091,-0.038 0.02,-0.019 0.029,-0.046 0.006,-0.013 0.014,-0.013 0.012,0 0.012,0.01 0,0.026 -0.032,0.074 -0.054,0.08 -0.125,0.08 -0.034,0 -0.064,-0.037 -0.028,-0.033 -0.045,-0.037 -0.005,-0.001 -0.013,-0.001 -0.044,0 -0.085,0.062 -0.007,0.013 -0.016,0.013 -0.012,0 -0.012,-0.01 0,-0.012 0.046,-0.068 0.026,-0.032 0.057,-0.063 l 0.09,-0.084 q 0.099,-0.084 0.139,-0.131 -0.036,0 -0.077,-0.015 -0.043,-0.015 -0.063,-0.015 -0.058,0 -0.08,0.038 -0.003,0.004 -0.005,0.009 -0.004,0.011 -0.013,0.011 -0.012,0 -0.012,-0.011 0,-0.022 0.029,-0.06 0.04,-0.054 0.092,-0.054 0.033,0 0.062,0.035 l 0.001,10e-4 q 0.002,0.003 0.006,0.007 0.024,0.027 0.039,0.031 0.006,0.001 0.012,0.001 0.034,0 0.071,-0.058 l 0.004,-0.006 q 0.006,-0.011 0.015,-0.011 0.011,0 0.011,0.01 0,0.012 -0.042,0.064 -0.03,0.037 -0.075,0.081 -0.006,0.006 -0.095,0.087 l -0.003,0.003 q -0.065,0.056 -0.119,0.114 z"
             id="path27" />
        </g>
      </g>
      <g
         transform="scale(35)"
         id="g33">
        <g
           transform="translate(27.6,22.66)"
           id="g30">
          <path
             fill="#000000"
             stroke="none"
             paint-order="stroke fill markers"
             d="M 0.661,-0.23 H 0.116 q -0.032,0 -0.033,-0.02 0,-0.02 0.033,-0.02 h 0.545 q 0.032,0 0.033,0.02 0,0.02 -0.033,0.02 z"
             id="path29" />
        </g>
        <g
           transform="translate(28.378,22.66)"
           id="g31">
          <path
             fill="#000000"
             stroke="none"
             paint-order="stroke fill markers"
             d="m 0.284,-0.625 q 0,0.031 -0.031,0.047 -0.011,0.006 -0.022,0.006 -0.03,0 -0.037,-0.027 -0.001,-0.005 -0.001,-0.009 0,-0.028 0.028,-0.045 0.013,-0.008 0.026,-0.008 0.03,0 0.036,0.027 v 0.001 q 0.001,0.004 0.001,0.008 m -0.076,0.376 -0.039,0.105 q -0.028,0.081 -0.029,0.1 0,0.033 0.024,0.033 0.063,0 0.098,-0.112 l 0.004,-0.012 q 0.005,-0.016 0.01,-0.017 v -0.001 h 0.005 q 0.012,0 0.012,0.01 0,0.018 -0.022,0.064 -0.043,0.09 -0.109,0.09 -0.053,0 -0.074,-0.044 -0.008,-0.018 -0.008,-0.038 0,-0.02 0.023,-0.08 0.07,-0.188 0.069,-0.185 0.011,-0.028 0.011,-0.052 0,-0.032 -0.025,-0.032 -0.055,0 -0.09,0.091 v 0.001 q -0.006,0.015 -0.011,0.032 -0.011,0.017 -0.016,0.018 -0.012,0 -0.012,-0.01 0,-0.018 0.022,-0.063 0.043,-0.091 0.11,-0.091 0.053,0 0.074,0.045 0.008,0.017 0.008,0.037 0,0.02 -0.013,0.053 -0.017,0.046 -0.022,0.058 z"
             id="path30" />
        </g>
        <g
           transform="translate(28.723,22.66)"
           id="g32">
          <path
             fill="#000000"
             stroke="none"
             paint-order="stroke fill markers"
             d="m 0.133,-0.083 v 0 q 0.009,-0.003 0.027,-0.003 0.026,0 0.07,0.017 0.039,0.013 0.059,0.013 0.053,0 0.091,-0.038 0.02,-0.019 0.029,-0.046 0.006,-0.013 0.014,-0.013 0.012,0 0.012,0.01 0,0.026 -0.032,0.074 -0.054,0.08 -0.125,0.08 -0.034,0 -0.064,-0.037 -0.028,-0.033 -0.045,-0.037 -0.005,-0.001 -0.013,-0.001 -0.044,0 -0.085,0.062 -0.007,0.013 -0.016,0.013 -0.012,0 -0.012,-0.01 0,-0.012 0.046,-0.068 0.026,-0.032 0.057,-0.063 l 0.09,-0.084 q 0.099,-0.084 0.139,-0.131 -0.036,0 -0.077,-0.015 -0.043,-0.015 -0.063,-0.015 -0.058,0 -0.08,0.038 -0.003,0.004 -0.005,0.009 -0.004,0.011 -0.013,0.011 -0.012,0 -0.012,-0.011 0,-0.022 0.029,-0.06 0.04,-0.054 0.092,-0.054 0.033,0 0.062,0.035 l 0.001,10e-4 q 0.002,0.003 0.006,0.007 0.024,0.027 0.039,0.031 0.006,0.001 0.012,0.001 0.034,0 0.071,-0.058 l 0.004,-0.006 q 0.006,-0.011 0.015,-0.011 0.011,0 0.011,0.01 0,0.012 -0.042,0.064 -0.03,0.037 -0.075,0.081 -0.006,0.006 -0.095,0.087 l -0.003,0.003 q -0.065,0.056 -0.119,0.114 z"
             id="path31" />
        </g>
      </g>
    </g>
  </g>
</svg>
