<?xml version="1.0" encoding="UTF-8" standalone="no"?>
<svg
   version="1.1"
   width="553.16669"
   height="581.35834"
   id="svg40"
   sodipodi:docname="physics.svg"
   inkscape:version="1.4.2 (f4327f4, 2025-05-13)"
   xmlns:inkscape="http://www.inkscape.org/namespaces/inkscape"
   xmlns:sodipodi="http://sodipodi.sourceforge.net/DTD/sodipodi-0.dtd"
   xmlns="http://www.w3.org/2000/svg"
   xmlns:svg="http://www.w3.org/2000/svg">
  <sodipodi:namedview
     id="namedview40"
     pagecolor="#ffffff"
     bordercolor="#000000"
     borderopacity="0.25"
     inkscape:showpageshadow="2"
     inkscape:pageopacity="0.0"
     inkscape:pagecheckerboard="0"
     inkscape:deskcolor="#d1d1d1"
     inkscape:zoom="1.114061"
     inkscape:cx="277.36363"
     inkscape:cy="304.74094"
     inkscape:window-width="2560"
     inkscape:window-height="1351"
     inkscape:window-x="-9"
     inkscape:window-y="-9"
     inkscape:window-maximized="1"
     inkscape:current-layer="svg40" />
  <defs
     id="defs1">
    <clipPath
       id="uszuteaPdSzC">
      <path
         fill="none"
         stroke="none"
         d="M 0,0 H 1976 V 1017 H 0 Z"
         id="path1" />
    </clipPath>
  </defs>
  <g
     clip-path="url(#uszuteaPdSzC)"
     id="g40"
     transform="translate(-711.41667,-203.725)">
    <g
       id="g39">
      <path
         fill="none"
         stroke="#000000"
         paint-order="fill stroke markers"
         d="m 1263.3333,508.5 c 0,152.0624 -123.2709,275.33333 -275.3333,275.33333 -152.0624,0 -275.33333,-123.27093 -275.33333,-275.33333 0,-152.0624 123.27093,-275.33333 275.33333,-275.33333 152.0624,0 275.3333,123.27093 275.3333,275.33333 z"
         stroke-opacity="0.8"
         stroke-linecap="round"
         stroke-linejoin="round"
         stroke-miterlimit="10"
         stroke-width="2.5"
         id="path2" />
      <path
         fill="#000000"
         stroke="none"
         paint-order="stroke fill markers"
         fill-rule="evenodd"
         d="m 988,358.42902 h 21.2132 V 337.21581 H 988 v 21.21321"
         fill-opacity="0.0980392"
         id="path3" />
      <path
         fill="none"
         stroke="#000000"
         paint-order="fill stroke markers"
         d="m 988,358.42902 h 21.2132 V 337.21581 H 988 v 21.21321"
         stroke-opacity="0.6"
         stroke-linecap="round"
         stroke-linejoin="round"
         stroke-miterlimit="10"
         stroke-width="2.5"
         id="path4" />
      <path
         fill="none"
         stroke="#000000"
         paint-order="fill stroke markers"
         d="m 988,233.16667 230.8401,125.26235"
         stroke-opacity="0.698039"
         stroke-linecap="round"
         stroke-linejoin="round"
         stroke-miterlimit="10"
         stroke-width="2.5"
         id="path5" />
      <path
         fill="none"
         stroke="#000000"
         paint-order="fill stroke markers"
         d="M 988,233.16667 V 783.83333"
         stroke-opacity="0.698039"
         stroke-linecap="round"
         stroke-linejoin="round"
         stroke-miterlimit="10"
         stroke-width="2.5"
         id="path6" />
      <path
         fill="none"
         stroke="#000000"
         paint-order="fill stroke markers"
         d="M 1218.8401,358.42902 988,783.83333"
         stroke-opacity="0.698039"
         stroke-linecap="round"
         stroke-linejoin="round"
         stroke-miterlimit="10"
         stroke-width="2.5"
         id="path7" />
      <path
         fill="none"
         stroke="#000000"
         paint-order="fill stroke markers"
         d="M 1218.8401,358.42902 H 988"
         stroke-opacity="0.501961"
         stroke-linejoin="round"
         stroke-miterlimit="10"
         stroke-width="2.5"
         stroke-dasharray="10.5, 8"
         id="path8" />
      <path
         fill="none"
         stroke="#000000"
         paint-order="fill stroke markers"
         d="M 1218.8401,358.42902 V 233.16667"
         stroke-opacity="0.698039"
         stroke-linecap="round"
         stroke-linejoin="round"
         stroke-miterlimit="10"
         stroke-width="2.5"
         id="path9" />
      <path
         fill="none"
         stroke="#000000"
         paint-order="fill stroke markers"
         d="M 988,233.16667 H 826.5"
         stroke-opacity="0.301961"
         stroke-linecap="round"
         stroke-linejoin="round"
         stroke-miterlimit="10"
         stroke-width="2.5"
         id="path10" />
      <path
         fill="none"
         stroke="#000000"
         paint-order="fill stroke markers"
         d="M 988,358.42902 H 826.5"
         stroke-opacity="0.301961"
         stroke-linecap="round"
         stroke-linejoin="round"
         stroke-miterlimit="10"
         stroke-width="2.5"
         id="path11" />
      <path
         fill="none"
         stroke="#000000"
         paint-order="fill stroke markers"
         d="M 988,783.83333 H 826.5"
         stroke-opacity="0.301961"
         stroke-linecap="round"
         stroke-linejoin="round"
         stroke-miterlimit="10"
         stroke-width="2.5"
         id="path12" />
      <path
         fill="none"
         stroke="#000000"
         paint-order="fill stroke markers"
         d="m 988,508.5 h 93.5"
         stroke-opacity="0.301961"
         stroke-linecap="round"
         stroke-linejoin="round"
         stroke-miterlimit="10"
         stroke-width="2.5"
         id="path13" />
      <path
         fill="none"
         stroke="#000000"
         paint-order="fill stroke markers"
         d="m 988,783.83333 h 93.5"
         stroke-opacity="0.301961"
         stroke-linecap="round"
         stroke-linejoin="round"
         stroke-miterlimit="10"
         stroke-width="2.5"
         id="path14" />
      <path
         fill="#000000"
         stroke="none"
         paint-order="stroke fill markers"
         d="m 1201.8401,228.91667 v 3 H 988 c -0.69036,0 -1.25,0.55964 -1.25,1.25 0,0.69035 0.55964,1.25 1.25,1.25 h 213.8401 v 3 l 17,-4.25 z"
         fill-opacity="0.698039"
         id="path15" />
      <path
         fill="#000000"
         stroke="none"
         paint-order="stroke fill markers"
         d="m 867.5,233.16667 -4.25,17 h 3 V 274 c 0,0.69036 0.55964,1.25 1.25,1.25 0.69036,0 1.25,-0.55964 1.25,-1.25 v -23.83333 h 3 z"
         fill-opacity="0.698039"
         id="path16" />
      <path
         fill="#000000"
         stroke="none"
         paint-order="stroke fill markers"
         d="m 867.5,313.75 c -0.69036,0 -1.25,0.55964 -1.25,1.25 v 26.42902 h -3 l 4.25,17 4.25,-17 h -3 V 315 c 0,-0.69036 -0.55964,-1.25 -1.25,-1.25 z"
         fill-opacity="0.698039"
         id="path17" />
      <path
         fill="#000000"
         stroke="none"
         paint-order="stroke fill markers"
         d="m 867.5,358.42902 -4.25,17 h 3 V 549 c 0,0.69036 0.55964,1.25 1.25,1.25 0.69036,0 1.25,-0.55964 1.25,-1.25 V 375.42902 h 3 z"
         fill-opacity="0.698039"
         id="path18" />
      <path
         fill="#000000"
         stroke="none"
         paint-order="stroke fill markers"
         d="m 867.5,612.75 c -0.69036,0 -1.25,0.55964 -1.25,1.25 v 152.83333 h -3 l 4.25,17 4.25,-17 h -3 V 614 c 0,-0.69036 -0.55964,-1.25 -1.25,-1.25 z"
         fill-opacity="0.698039"
         id="path19" />
      <path
         fill="#000000"
         stroke="none"
         paint-order="stroke fill markers"
         d="m 1047.5,508.5 -4.25,17 h 3 V 574 c 0,0.69036 0.5596,1.25 1.25,1.25 0.6904,0 1.25,-0.55964 1.25,-1.25 v -48.5 h 3 z"
         fill-opacity="0.698039"
         id="path20" />
      <path
         fill="#000000"
         stroke="none"
         paint-order="stroke fill markers"
         d="m 1047.5,630.75 c -0.6904,0 -1.25,0.55964 -1.25,1.25 v 134.83333 h -3 l 4.25,17 4.25,-17 h -3 V 632 c 0,-0.69036 -0.5596,-1.25 -1.25,-1.25 z"
         fill-opacity="0.698039"
         id="path21" />
      <path
         fill="#000000"
         stroke="none"
         paint-order="stroke fill markers"
         d="m 993,508.5 c 0,2.76142 -2.23858,5 -5,5 -2.76142,0 -5,-2.23858 -5,-5 0,-2.76142 2.23858,-5 5,-5 2.76142,0 5,2.23858 5,5 z"
         fill-opacity="1"
         id="path22" />
      <path
         fill="none"
         stroke="#000000"
         paint-order="fill stroke markers"
         d="m 993,508.5 c 0,2.76142 -2.23858,5 -5,5 -2.76142,0 -5,-2.23858 -5,-5 0,-2.76142 2.23858,-5 5,-5 2.76142,0 5,2.23858 5,5 z"
         stroke-opacity="1"
         stroke-linecap="round"
         stroke-linejoin="round"
         stroke-miterlimit="10"
         id="path23" />
      <path
         fill="#000000"
         stroke="none"
         paint-order="stroke fill markers"
         d="m 993,358.42902 c 0,2.76142 -2.23858,5 -5,5 -2.76142,0 -5,-2.23858 -5,-5 0,-2.76143 2.23858,-5 5,-5 2.76142,0 5,2.23857 5,5 z"
         fill-opacity="1"
         id="path24" />
      <path
         fill="none"
         stroke="#000000"
         paint-order="fill stroke markers"
         d="m 993,358.42902 c 0,2.76142 -2.23858,5 -5,5 -2.76142,0 -5,-2.23858 -5,-5 0,-2.76143 2.23858,-5 5,-5 2.76142,0 5,2.23857 5,5 z"
         stroke-opacity="1"
         stroke-linecap="round"
         stroke-linejoin="round"
         stroke-miterlimit="10"
         id="path25" />
      <g
         transform="scale(25)"
         id="g27">
        <g
           transform="translate(44.16,8.591)"
           id="g26">
          <path
             fill="#000000"
             stroke="none"
             paint-order="stroke fill markers"
             d="M 0.334,-0.302 0.3,-0.165 q -0.017,0.068 -0.017,0.088 0,0.052 0.037,0.063 0.008,0.003 0.018,0.003 0.05,0 0.091,-0.05 0.027,-0.032 0.042,-0.081 0.003,-0.011 0.013,-0.011 0.012,0 0.012,0.01 0,0.025 -0.031,0.072 Q 0.411,0.011 0.336,0.011 0.268,0.011 0.237,-0.046 0.231,-0.055 0.228,-0.065 0.204,-0.017 0.162,0.002 0.143,0.011 0.123,0.011 q -0.06,0 -0.084,-0.035 -0.01,-0.013 -0.01,-0.031 0,-0.037 0.032,-0.052 0.011,-0.006 0.023,-0.006 0.03,0 0.036,0.025 0.001,0.005 0.001,0.01 0,0.034 -0.034,0.05 -0.006,0.003 -0.013,0.004 0.021,0.013 0.05,0.013 0.053,0 0.084,-0.071 0.006,-0.015 0.011,-0.033 0.054,-0.204 0.054,-0.238 -0.006,-0.062 -0.054,-0.067 -0.052,0 -0.095,0.053 v 0.001 q 0,0.001 -0.001,0.001 -0.015,0.02 -0.027,0.046 -0.005,0.012 -0.009,0.024 l -0.002,0.006 q -0.002,0.011 -0.013,0.011 -0.012,0 -0.012,-0.01 0,-0.025 0.032,-0.072 0.054,-0.082 0.129,-0.082 0.077,0 0.108,0.076 0.032,-0.062 0.085,-0.074 0.01,-0.002 0.02,-0.002 0.059,0 0.083,0.033 0.01,0.014 0.01,0.033 0,0.041 -0.037,0.055 -0.009,0.003 -0.017,0.003 -0.031,0 -0.037,-0.027 -0.001,-0.004 -0.001,-0.008 0,-0.03 0.029,-0.047 0.009,-0.005 0.019,-0.007 -0.021,-0.013 -0.05,-0.013 -0.068,0 -0.096,0.106 -0.002,0.006 -0.003,0.012 z"
             id="path26" />
        </g>
      </g>
      <g
         transform="scale(25)"
         id="g29">
        <g
           transform="translate(49.4,12.003)"
           id="g28">
          <path
             fill="#000000"
             stroke="none"
             paint-order="stroke fill markers"
             d="m 0.645,-0.695 v 0 l -0.054,0.219 q -0.009,0.019 -0.015,0.02 -0.012,0 -0.012,-0.01 L 0.568,-0.52 v -0.002 q 0,-0.138 -0.116,-0.153 -0.013,-0.002 -0.028,-0.002 -0.078,0 -0.133,0.063 -0.042,0.048 -0.042,0.103 0,0.06 0.049,0.086 0.006,0.003 0.012,0.005 0.005,0.001 0.067,0.018 0.092,0.024 0.11,0.036 0.008,0.005 0.017,0.014 0.049,0.046 0.049,0.117 0,0.092 -0.072,0.171 Q 0.399,0.019 0.299,0.022 0.183,0.022 0.13,-0.05 L 0.081,0.007 q -0.013,0.015 -0.018,0.015 -0.011,0 -0.011,-0.01 l 0.057,-0.225 v -0.002 q 0.002,-0.007 0.003,-0.008 0.004,-0.004 0.01,-0.004 0.012,0 0.012,0.011 l -0.002,0.007 q -0.006,0.036 -0.006,0.054 0,0.113 0.115,0.139 0.028,0.007 0.06,0.007 0.079,0 0.135,-0.068 0.045,-0.053 0.045,-0.116 0,-0.078 -0.072,-0.101 L 0.389,-0.299 0.282,-0.327 Q 0.216,-0.346 0.19,-0.407 0.178,-0.436 0.178,-0.469 q 0,-0.091 0.076,-0.164 0.076,-0.072 0.171,-0.072 0.102,0 0.143,0.072 L 0.616,-0.69 q 0.013,-0.015 0.018,-0.015 0.011,0 0.011,0.01 z"
             id="path27" />
        </g>
      </g>
      <g
         transform="scale(25)"
         id="g31">
        <g
           transform="translate(34.32,12.083)"
           id="g30">
          <path
             fill="#000000"
             stroke="none"
             paint-order="stroke fill markers"
             d="m 0.645,-0.695 v 0 l -0.054,0.219 q -0.009,0.019 -0.015,0.02 -0.012,0 -0.012,-0.01 L 0.568,-0.52 v -0.002 q 0,-0.138 -0.116,-0.153 -0.013,-0.002 -0.028,-0.002 -0.078,0 -0.133,0.063 -0.042,0.048 -0.042,0.103 0,0.06 0.049,0.086 0.006,0.003 0.012,0.005 0.005,0.001 0.067,0.018 0.092,0.024 0.11,0.036 0.008,0.005 0.017,0.014 0.049,0.046 0.049,0.117 0,0.092 -0.072,0.171 Q 0.399,0.019 0.299,0.022 0.183,0.022 0.13,-0.05 L 0.081,0.007 q -0.013,0.015 -0.018,0.015 -0.011,0 -0.011,-0.01 l 0.057,-0.225 v -0.002 q 0.002,-0.007 0.003,-0.008 0.004,-0.004 0.01,-0.004 0.012,0 0.012,0.011 l -0.002,0.007 q -0.006,0.036 -0.006,0.054 0,0.113 0.115,0.139 0.028,0.007 0.06,0.007 0.079,0 0.135,-0.068 0.045,-0.053 0.045,-0.116 0,-0.078 -0.072,-0.101 L 0.389,-0.299 0.282,-0.327 Q 0.216,-0.346 0.19,-0.407 0.178,-0.436 0.178,-0.469 q 0,-0.091 0.076,-0.164 0.076,-0.072 0.171,-0.072 0.102,0 0.143,0.072 L 0.616,-0.69 q 0.013,-0.015 0.018,-0.015 0.011,0 0.011,0.01 z"
             id="path29" />
        </g>
      </g>
      <g
         transform="scale(25)"
         id="g33">
        <g
           transform="translate(41.48,24.443)"
           id="g32">
          <path
             fill="#000000"
             stroke="none"
             paint-order="stroke fill markers"
             d="M 0.375,-0.614 0.31,-0.353 h 0.112 q 0.111,0 0.169,-0.058 0.044,-0.044 0.054,-0.122 v -0.001 q 0.001,-0.011 0.001,-0.019 0,-0.089 -0.126,-0.098 H 0.518 q -0.019,-0.001 -0.054,-0.001 -0.052,0 -0.061,0.001 -0.018,0.003 -0.024,0.022 v 0 q -0.001,0.005 -0.004,0.015 m 0.144,0.274 v 0 q 0.086,0.032 0.093,0.105 0.001,0.006 0.001,0.013 0,0.019 -0.004,0.047 -0.01,0.08 -0.01,0.114 0,0.052 0.026,0.059 H 0.626 Q 0.632,0 0.639,0 0.682,0 0.712,-0.052 0.723,-0.069 0.73,-0.091 q 0.004,-0.014 0.013,-0.014 0.012,0 0.012,0.012 0,0.02 -0.024,0.056 -0.019,0.029 -0.044,0.045 -0.024,0.014 -0.052,0.014 -0.083,0 -0.116,-0.049 -0.017,-0.024 -0.017,-0.059 0,-0.021 0.016,-0.085 0.014,-0.054 0.014,-0.069 0,-0.062 -0.056,-0.082 V -0.323 Q 0.453,-0.331 0.423,-0.331 H 0.304 l -0.066,0.265 -0.003,0.017 q 0,0.017 0.046,0.018 v 0 0 H 0.3 q 0.026,0 0.028,0.011 Q 0.328,0 0.308,0 L 0.182,-0.003 H 0.181 L 0.056,0 H 0.055 q -0.014,0 -0.014,-0.011 0,-0.018 0.015,-0.02 h 0.012 q 0.065,0 0.078,-0.014 0.006,-0.007 0.012,-0.028 0,-0.001 0.001,-0.005 l 0.134,-0.537 q 0.004,-0.016 0.004,-0.019 0,-0.012 -0.016,-0.015 H 0.28 0.279 q -0.003,0 -0.009,-0.001 -0.017,-0.002 -0.038,-0.002 -0.026,0 -0.028,-0.011 0,-0.018 0.015,-0.02 h 0.014 0.285 q 0.125,0 0.186,0.066 0.035,0.036 0.035,0.084 0,0.087 -0.107,0.149 -0.052,0.031 -0.113,0.044 z"
             id="path31" />
        </g>
      </g>
      <g
         transform="scale(25)"
         id="g38">
        <g
           transform="translate(32.92,23.403)"
           id="g34">
          <path
             fill="#000000"
             stroke="none"
             paint-order="stroke fill markers"
             d="m 0.449,-0.174 v 0 L 0.421,0 H 0.05 q 0,-0.025 0.006,-0.032 l 0.005,-0.005 0.192,-0.214 q 0.105,-0.118 0.105,-0.221 0,-0.089 -0.054,-0.135 L 0.303,-0.608 H 0.302 Q 0.27,-0.635 0.224,-0.635 q -0.072,0 -0.115,0.062 -0.012,0.018 -0.02,0.04 0.003,-0.001 0.013,-0.001 0.04,0 0.051,0.036 v 0.001 q 0.002,0.007 0.002,0.015 0,0.04 -0.038,0.051 -0.008,0.002 -0.014,0.002 -0.037,0 -0.049,-0.031 -0.004,-0.011 -0.004,-0.025 0,-0.077 0.059,-0.132 0.053,-0.049 0.128,-0.049 0.11,0 0.171,0.074 0.035,0.043 0.04,0.102 0.001,0.009 0.001,0.018 0,0.073 -0.055,0.139 -0.029,0.034 -0.09,0.09 l -0.061,0.054 -0.01,0.009 -0.106,0.103 h 0.18 q 0.088,0 0.095,-0.008 0.01,-0.014 0.022,-0.089 z"
             id="path33" />
        </g>
        <g
           transform="translate(33.42,23.403)"
           id="g35">
          <path
             fill="#000000"
             stroke="none"
             paint-order="stroke fill markers"
             d="M 0.375,-0.614 0.31,-0.353 h 0.112 q 0.111,0 0.169,-0.058 0.044,-0.044 0.054,-0.122 v -0.001 q 0.001,-0.011 0.001,-0.019 0,-0.089 -0.126,-0.098 H 0.518 q -0.019,-0.001 -0.054,-0.001 -0.052,0 -0.061,0.001 -0.018,0.003 -0.024,0.022 v 0 q -0.001,0.005 -0.004,0.015 m 0.144,0.274 v 0 q 0.086,0.032 0.093,0.105 0.001,0.006 0.001,0.013 0,0.019 -0.004,0.047 -0.01,0.08 -0.01,0.114 0,0.052 0.026,0.059 H 0.626 Q 0.632,0 0.639,0 0.682,0 0.712,-0.052 0.723,-0.069 0.73,-0.091 q 0.004,-0.014 0.013,-0.014 0.012,0 0.012,0.012 0,0.02 -0.024,0.056 -0.019,0.029 -0.044,0.045 -0.024,0.014 -0.052,0.014 -0.083,0 -0.116,-0.049 -0.017,-0.024 -0.017,-0.059 0,-0.021 0.016,-0.085 0.014,-0.054 0.014,-0.069 0,-0.062 -0.056,-0.082 V -0.323 Q 0.453,-0.331 0.423,-0.331 H 0.304 l -0.066,0.265 -0.003,0.017 q 0,0.017 0.046,0.018 v 0 0 H 0.3 q 0.026,0 0.028,0.011 Q 0.328,0 0.308,0 L 0.182,-0.003 H 0.181 L 0.056,0 H 0.055 q -0.014,0 -0.014,-0.011 0,-0.018 0.015,-0.02 h 0.012 q 0.065,0 0.078,-0.014 0.006,-0.007 0.012,-0.028 0,-0.001 0.001,-0.005 l 0.134,-0.537 q 0.004,-0.016 0.004,-0.019 0,-0.012 -0.016,-0.015 H 0.28 0.279 q -0.003,0 -0.009,-0.001 -0.017,-0.002 -0.038,-0.002 -0.026,0 -0.028,-0.011 0,-0.018 0.015,-0.02 h 0.014 0.285 q 0.125,0 0.186,0.066 0.035,0.036 0.035,0.084 0,0.087 -0.107,0.149 -0.052,0.031 -0.113,0.044 z"
             id="path34" />
        </g>
        <g
           transform="translate(34.409222,23.403)"
           id="g36">
          <path
             fill="#000000"
             stroke="none"
             paint-order="stroke fill markers"
             d="M 0.661,-0.23 H 0.116 q -0.032,0 -0.033,-0.02 0,-0.02 0.033,-0.02 h 0.545 q 0.032,0 0.033,0.02 0,0.02 -0.033,0.02 z"
             id="path35" />
        </g>
        <g
           transform="translate(35.409444,23.403)"
           id="g37">
          <path
             fill="#000000"
             stroke="none"
             paint-order="stroke fill markers"
             d="m 0.645,-0.695 v 0 l -0.054,0.219 q -0.009,0.019 -0.015,0.02 -0.012,0 -0.012,-0.01 L 0.568,-0.52 v -0.002 q 0,-0.138 -0.116,-0.153 -0.013,-0.002 -0.028,-0.002 -0.078,0 -0.133,0.063 -0.042,0.048 -0.042,0.103 0,0.06 0.049,0.086 0.006,0.003 0.012,0.005 0.005,0.001 0.067,0.018 0.092,0.024 0.11,0.036 0.008,0.005 0.017,0.014 0.049,0.046 0.049,0.117 0,0.092 -0.072,0.171 Q 0.399,0.019 0.299,0.022 0.183,0.022 0.13,-0.05 L 0.081,0.007 q -0.013,0.015 -0.018,0.015 -0.011,0 -0.011,-0.01 l 0.057,-0.225 v -0.002 q 0.002,-0.007 0.003,-0.008 0.004,-0.004 0.01,-0.004 0.012,0 0.012,0.011 l -0.002,0.007 q -0.006,0.036 -0.006,0.054 0,0.113 0.115,0.139 0.028,0.007 0.06,0.007 0.079,0 0.135,-0.068 0.045,-0.053 0.045,-0.116 0,-0.078 -0.072,-0.101 L 0.389,-0.299 0.282,-0.327 Q 0.216,-0.346 0.19,-0.407 0.178,-0.436 0.178,-0.469 q 0,-0.091 0.076,-0.164 0.076,-0.072 0.171,-0.072 0.102,0 0.143,0.072 L 0.616,-0.69 q 0.013,-0.015 0.018,-0.015 0.011,0 0.011,0.01 z"
             id="path36" />
        </g>
      </g>
    </g>
  </g>
</svg>
