<?xml version="1.0" encoding="UTF-8" standalone="no"?>
<svg
   version="1.1"
   width="248.41869"
   height="141.164"
   id="svg24"
   sodipodi:docname="1.svg"
   inkscape:version="1.4.2 (f4327f4, 2025-05-13)"
   xmlns:inkscape="http://www.inkscape.org/namespaces/inkscape"
   xmlns:sodipodi="http://sodipodi.sourceforge.net/DTD/sodipodi-0.dtd"
   xmlns="http://www.w3.org/2000/svg"
   xmlns:svg="http://www.w3.org/2000/svg">
  <sodipodi:namedview
     id="namedview24"
     pagecolor="#ffffff"
     bordercolor="#000000"
     borderopacity="0.25"
     inkscape:showpageshadow="2"
     inkscape:pageopacity="0.0"
     inkscape:pagecheckerboard="0"
     inkscape:deskcolor="#d1d1d1"
     inkscape:zoom="1.1307385"
     inkscape:cx="97.281553"
     inkscape:cy="90.64872"
     inkscape:window-width="2560"
     inkscape:window-height="1351"
     inkscape:window-x="-9"
     inkscape:window-y="-9"
     inkscape:window-maximized="1"
     inkscape:current-layer="svg24" />
  <defs
     id="defs1">
    <clipPath
       id="hZOAqWrIrVry">
      <path
         fill="none"
         stroke="none"
         d="M 0,0 H 1637 V 1002 H 0 Z"
         id="path1" />
    </clipPath>
  </defs>
  <g
     clip-path="url(#hZOAqWrIrVry)"
     id="g24"
     transform="translate(-721.4,-410.461)">
    <g
       id="g23">
      <path
         fill="none"
         stroke="#000000"
         paint-order="fill stroke markers"
         d="m 749.02729,463.81742 138.94542,74.36516"
         stroke-opacity="0.698039"
         stroke-linecap="round"
         stroke-linejoin="round"
         stroke-miterlimit="10"
         stroke-width="2.5"
         id="path2" />
      <path
         fill="none"
         stroke="#000000"
         paint-order="fill stroke markers"
         d="M 887.97271,463.81742 749.02729,538.18258"
         stroke-opacity="0.698039"
         stroke-linecap="round"
         stroke-linejoin="round"
         stroke-miterlimit="10"
         stroke-width="2.5"
         id="path3" />
      <g
         transform="scale(35)"
         id="g14">
        <g
           transform="translate(20.571429,12.606549)"
           id="g4">
          <path
             fill="#000000"
             stroke="none"
             paint-order="stroke fill markers"
             d="m 0.373,-0.378 q 0.005,-0.034 0.031,-0.042 0.005,-0.002 0.011,-0.002 0.026,0 0.029,0.027 0,0.006 -0.007,0.034 l -0.036,0.14 q -0.015,0.063 -0.022,0.09 -0.013,0.052 -0.013,0.074 0,0.046 0.03,0.046 0.038,0 0.064,-0.08 0.005,-0.017 0.012,-0.044 0.008,-0.017 0.014,-0.018 0.012,0 0.012,0.01 0,0.015 -0.018,0.07 Q 0.474,-0.056 0.468,-0.044 0.44,0.011 0.394,0.011 0.338,0.011 0.313,-0.037 0.306,-0.049 0.303,-0.064 0.24,0.011 0.173,0.011 0.098,0.011 0.062,-0.057 0.04,-0.097 0.04,-0.149 q 0,-0.108 0.075,-0.2 0.07,-0.084 0.152,-0.092 0.007,-0.001 0.014,-0.001 0.061,0 0.092,0.064 m -0.065,0.259 v 0 l 0.05,-0.196 q 0.003,-0.015 0.003,-0.017 0,-0.021 -0.018,-0.051 -0.022,-0.037 -0.061,-0.037 -0.052,0 -0.099,0.068 -0.009,0.013 -0.017,0.028 -0.029,0.058 -0.049,0.165 -0.006,0.034 -0.006,0.054 0,0.068 0.038,0.088 0.011,0.006 0.026,0.006 0.056,0 0.113,-0.071 0.014,-0.016 0.019,-0.033 v -0.001 q 0.001,-0.002 0.001,-0.003 z"
             id="path4" />
        </g>
        <g
           transform="translate(21.100429,12.606549)"
           id="g5">
          <path
             fill="#000000"
             stroke="none"
             paint-order="stroke fill markers"
             d="M 0.334,-0.302 0.3,-0.165 q -0.017,0.068 -0.017,0.088 0,0.052 0.037,0.063 0.008,0.003 0.018,0.003 0.05,0 0.091,-0.05 0.027,-0.032 0.042,-0.081 0.003,-0.011 0.013,-0.011 0.012,0 0.012,0.01 0,0.025 -0.031,0.072 Q 0.411,0.011 0.336,0.011 0.268,0.011 0.237,-0.046 0.231,-0.055 0.228,-0.065 0.204,-0.017 0.162,0.002 0.143,0.011 0.123,0.011 q -0.06,0 -0.084,-0.035 -0.01,-0.013 -0.01,-0.031 0,-0.037 0.032,-0.052 0.011,-0.006 0.023,-0.006 0.03,0 0.036,0.025 0.001,0.005 0.001,0.01 0,0.034 -0.034,0.05 -0.006,0.003 -0.013,0.004 0.021,0.013 0.05,0.013 0.053,0 0.084,-0.071 0.006,-0.015 0.011,-0.033 0.054,-0.204 0.054,-0.238 -0.006,-0.062 -0.054,-0.067 -0.052,0 -0.095,0.053 v 0.001 q 0,0.001 -0.001,0.001 -0.015,0.02 -0.027,0.046 -0.005,0.012 -0.009,0.024 l -0.002,0.006 q -0.002,0.011 -0.013,0.011 -0.012,0 -0.012,-0.01 0,-0.025 0.032,-0.072 0.054,-0.082 0.129,-0.082 0.077,0 0.108,0.076 0.032,-0.062 0.085,-0.074 0.01,-0.002 0.02,-0.002 0.059,0 0.083,0.033 0.01,0.014 0.01,0.033 0,0.041 -0.037,0.055 -0.009,0.003 -0.017,0.003 -0.031,0 -0.037,-0.027 -0.001,-0.004 -0.001,-0.008 0,-0.03 0.029,-0.047 0.009,-0.005 0.019,-0.007 -0.021,-0.013 -0.05,-0.013 -0.068,0 -0.096,0.106 -0.002,0.006 -0.003,0.012 z"
             id="path5" />
        </g>
        <g
           transform="matrix(0.7,0,0,0.7,21.672429,12.193657)"
           id="g6">
          <path
             fill="#000000"
             stroke="none"
             paint-order="stroke fill markers"
             d="m 0.449,-0.174 v 0 L 0.421,0 H 0.05 q 0,-0.025 0.006,-0.032 l 0.005,-0.005 0.192,-0.214 q 0.105,-0.118 0.105,-0.221 0,-0.089 -0.054,-0.135 L 0.303,-0.608 H 0.302 Q 0.27,-0.635 0.224,-0.635 q -0.072,0 -0.115,0.062 -0.012,0.018 -0.02,0.04 0.003,-0.001 0.013,-0.001 0.04,0 0.051,0.036 v 0.001 q 0.002,0.007 0.002,0.015 0,0.04 -0.038,0.051 -0.008,0.002 -0.014,0.002 -0.037,0 -0.049,-0.031 -0.004,-0.011 -0.004,-0.025 0,-0.077 0.059,-0.132 0.053,-0.049 0.128,-0.049 0.11,0 0.171,0.074 0.035,0.043 0.04,0.102 0.001,0.009 0.001,0.018 0,0.073 -0.055,0.139 -0.029,0.034 -0.09,0.09 l -0.061,0.054 -0.01,0.009 -0.106,0.103 h 0.18 q 0.088,0 0.095,-0.008 0.01,-0.014 0.022,-0.089 z"
             id="path6" />
        </g>
        <g
           transform="translate(22.258883,12.606549)"
           id="g7">
          <path
             fill="#000000"
             stroke="none"
             paint-order="stroke fill markers"
             d="m 0.409,-0.23 v 0.28 q 0,0.032 -0.02,0.033 -0.02,0 -0.02,-0.033 v -0.28 h -0.28 q -0.032,0 -0.033,-0.02 0,-0.02 0.033,-0.02 h 0.28 v -0.28 q 0,-0.032 0.02,-0.033 0.02,0 0.02,0.033 v 0.28 h 0.279 q 0.032,0 0.033,0.02 0,0.02 -0.033,0.02 z"
             id="path7" />
        </g>
        <g
           transform="translate(23.259105,12.606549)"
           id="g8">
          <path
             fill="#000000"
             stroke="none"
             paint-order="stroke fill markers"
             d="m 0.239,-0.683 -0.074,0.301 q 0.058,-0.06 0.117,-0.06 0.075,0 0.112,0.069 0.021,0.04 0.021,0.091 0,0.106 -0.074,0.198 Q 0.272,0.001 0.189,0.01 0.181,0.011 0.174,0.011 q -0.072,0 -0.107,-0.067 -0.02,-0.038 -0.02,-0.09 0,-0.034 0.016,-0.101 l 0.082,-0.326 q 0.014,-0.059 0.014,-0.062 0,-0.011 -0.014,-0.014 v 0 q -0.012,-0.003 -0.036,-0.003 -0.022,0 -0.024,-0.012 0,-0.017 0.019,-0.02 l 0.122,-0.01 q 0.013,0 0.013,0.011 m -0.094,0.378 -0.022,0.092 q -0.016,0.063 -0.016,0.101 0,0.086 0.052,0.099 0.007,0.002 0.015,0.002 0.053,0 0.099,-0.07 0.01,-0.015 0.019,-0.033 0.027,-0.057 0.045,-0.154 0.006,-0.035 0.006,-0.058 0,-0.08 -0.049,-0.092 L 0.293,-0.419 Q 0.287,-0.42 0.28,-0.42 q -0.06,0 -0.12,0.08 -0.008,0.01 -0.015,0.035 z"
             id="path8" />
        </g>
        <g
           transform="translate(23.688105,12.606549)"
           id="g9">
          <path
             fill="#000000"
             stroke="none"
             paint-order="stroke fill markers"
             d="M 0.334,-0.302 0.3,-0.165 q -0.017,0.068 -0.017,0.088 0,0.052 0.037,0.063 0.008,0.003 0.018,0.003 0.05,0 0.091,-0.05 0.027,-0.032 0.042,-0.081 0.003,-0.011 0.013,-0.011 0.012,0 0.012,0.01 0,0.025 -0.031,0.072 Q 0.411,0.011 0.336,0.011 0.268,0.011 0.237,-0.046 0.231,-0.055 0.228,-0.065 0.204,-0.017 0.162,0.002 0.143,0.011 0.123,0.011 q -0.06,0 -0.084,-0.035 -0.01,-0.013 -0.01,-0.031 0,-0.037 0.032,-0.052 0.011,-0.006 0.023,-0.006 0.03,0 0.036,0.025 0.001,0.005 0.001,0.01 0,0.034 -0.034,0.05 -0.006,0.003 -0.013,0.004 0.021,0.013 0.05,0.013 0.053,0 0.084,-0.071 0.006,-0.015 0.011,-0.033 0.054,-0.204 0.054,-0.238 -0.006,-0.062 -0.054,-0.067 -0.052,0 -0.095,0.053 v 0.001 q 0,0.001 -0.001,0.001 -0.015,0.02 -0.027,0.046 -0.005,0.012 -0.009,0.024 l -0.002,0.006 q -0.002,0.011 -0.013,0.011 -0.012,0 -0.012,-0.01 0,-0.025 0.032,-0.072 0.054,-0.082 0.129,-0.082 0.077,0 0.108,0.076 0.032,-0.062 0.085,-0.074 0.01,-0.002 0.02,-0.002 0.059,0 0.083,0.033 0.01,0.014 0.01,0.033 0,0.041 -0.037,0.055 -0.009,0.003 -0.017,0.003 -0.031,0 -0.037,-0.027 -0.001,-0.004 -0.001,-0.008 0,-0.03 0.029,-0.047 0.009,-0.005 0.019,-0.007 -0.021,-0.013 -0.05,-0.013 -0.068,0 -0.096,0.106 -0.002,0.006 -0.003,0.012 z"
             id="path9" />
        </g>
        <g
           transform="translate(24.482328,12.606549)"
           id="g10">
          <path
             fill="#000000"
             stroke="none"
             paint-order="stroke fill markers"
             d="m 0.409,-0.23 v 0.28 q 0,0.032 -0.02,0.033 -0.02,0 -0.02,-0.033 v -0.28 h -0.28 q -0.032,0 -0.033,-0.02 0,-0.02 0.033,-0.02 h 0.28 v -0.28 q 0,-0.032 0.02,-0.033 0.02,0 0.02,0.033 v 0.28 h 0.279 q 0.032,0 0.033,0.02 0,0.02 -0.033,0.02 z"
             id="path10" />
        </g>
        <g
           transform="translate(25.48255,12.606549)"
           id="g11">
          <path
             fill="#000000"
             stroke="none"
             paint-order="stroke fill markers"
             d="m 0.396,-0.38 v 0 Q 0.368,-0.416 0.31,-0.42 q -0.065,0 -0.118,0.066 -0.013,0.016 -0.023,0.034 -0.04,0.073 -0.052,0.172 -0.002,0.016 -0.002,0.028 0,0.082 0.056,0.103 0.014,0.006 0.034,0.006 0.09,0 0.162,-0.06 0.021,-0.017 0.038,-0.039 0.007,-0.01 0.013,-0.01 0.009,0 0.012,0.013 0,0.011 -0.034,0.043 -0.083,0.075 -0.193,0.075 -0.095,0 -0.138,-0.076 -0.024,-0.041 -0.024,-0.093 0,-0.102 0.078,-0.189 0.077,-0.086 0.172,-0.094 0.009,-0.001 0.018,-0.001 0.077,0 0.107,0.047 0.011,0.018 0.011,0.039 0,0.044 -0.035,0.06 -0.01,0.004 -0.021,0.004 -0.03,0 -0.036,-0.026 -0.001,-0.004 -0.001,-0.009 0,-0.022 0.018,-0.039 0.014,-0.014 0.044,-0.014 z"
             id="path11" />
        </g>
        <g
           transform="translate(26.193328,12.606549)"
           id="g12">
          <path
             fill="#000000"
             stroke="none"
             paint-order="stroke fill markers"
             d="M 0.687,-0.327 H 0.09 q -0.032,0 -0.034,-0.02 0,-0.02 0.033,-0.02 h 0.599 q 0.032,0 0.033,0.02 0,0.02 -0.034,0.02 m 10e-4,0.194 H 0.089 q -0.032,0 -0.033,-0.02 0,-0.02 0.034,-0.02 h 0.597 q 0.032,0 0.034,0.02 0,0.02 -0.033,0.02 z"
             id="path12" />
        </g>
        <g
           transform="translate(27.249105,12.606549)"
           id="g13">
          <path
             fill="#000000"
             stroke="none"
             paint-order="stroke fill markers"
             d="m 0.46,-0.32 q 0,0.146 -0.037,0.226 Q 0.364,0.018 0.249,0.022 0.158,0.022 0.103,-0.05 0.092,-0.063 0.084,-0.079 0.039,-0.162 0.039,-0.32 q 0,-0.147 0.037,-0.227 0.05,-0.112 0.162,-0.119 H 0.25 q 0.089,0 0.145,0.071 v 0.001 q 0.014,0.018 0.025,0.04 0.04,0.085 0.04,0.234 M 0.249,0 v 0 q 0.063,0 0.097,-0.061 0.014,-0.027 0.02,-0.064 0.011,-0.064 0.011,-0.207 0,-0.139 -0.01,-0.195 -0.018,-0.095 -0.092,-0.114 -0.013,-0.003 -0.026,-0.003 -0.07,0 -0.102,0.07 -0.011,0.024 -0.017,0.058 -0.008,0.054 -0.008,0.184 0,0.151 0.011,0.211 0.018,0.096 0.088,0.117 Q 0.235,0 0.249,0 Z"
             id="path13" />
        </g>
      </g>
      <g
         transform="scale(25)"
         id="g16">
        <g
           transform="translate(28.84,18.854)"
           id="g15">
          <path
             fill="#000000"
             stroke="none"
             paint-order="stroke fill markers"
             d="m 0.287,-0.683 -0.104,0.422 q 0.043,-0.017 0.111,-0.093 0.079,-0.088 0.146,-0.088 0.048,0 0.064,0.04 0.004,0.011 0.004,0.023 0,0.041 -0.034,0.057 -0.011,0.004 -0.021,0.004 -0.031,0 -0.037,-0.027 -0.001,-0.004 -0.001,-0.008 0,-0.028 0.025,-0.044 l 0.001,-0.001 v 0 Q 0.454,-0.406 0.472,-0.407 L 0.468,-0.411 Q 0.46,-0.417 0.447,-0.419 0.445,-0.42 0.438,-0.42 q -0.053,0 -0.129,0.081 -0.004,0.004 -0.008,0.009 l -0.006,0.006 q -0.052,0.054 -0.086,0.074 0.148,0.019 0.148,0.105 0,0.014 -0.004,0.031 -0.008,0.032 -0.008,0.056 0,0.047 0.032,0.047 0.046,0 0.074,-0.083 0.007,-0.017 0.013,-0.041 0.008,-0.017 0.014,-0.018 0.012,0 0.012,0.01 0,0.016 -0.019,0.065 -0.008,0.02 -0.017,0.036 -0.032,0.053 -0.079,0.053 -0.055,0 -0.08,-0.048 -0.012,-0.023 -0.012,-0.051 0,-0.011 0.004,-0.035 Q 0.29,-0.133 0.29,-0.144 0.29,-0.207 0.2,-0.225 0.187,-0.228 0.174,-0.229 0.124,-0.021 0.118,-0.01 0.108,0.009 0.084,0.011 0.06,0.011 0.056,-0.01 0.055,-0.014 0.055,-0.017 q 0,-0.008 0.004,-0.022 l 0.145,-0.576 0.003,-0.02 q 0,-0.011 -0.014,-0.014 v 0 q -0.012,-0.003 -0.036,-0.003 -0.022,0 -0.024,-0.012 0,-0.017 0.019,-0.02 l 0.122,-0.01 q 0.013,0 0.013,0.011 z"
             id="path14" />
        </g>
      </g>
      <g
         transform="scale(25)"
         id="g18">
        <g
           transform="translate(28.92,22.054)"
           id="g17">
          <path
             fill="#000000"
             stroke="none"
             paint-order="stroke fill markers"
             d="m 0.258,-0.683 -0.144,0.578 q -0.006,0.023 -0.006,0.048 0,0.046 0.03,0.046 0.039,0 0.065,-0.086 0.005,-0.015 0.011,-0.038 0.008,-0.017 0.014,-0.018 0.012,0 0.012,0.01 0,0.015 -0.018,0.069 -0.006,0.017 -0.012,0.029 -0.026,0.056 -0.075,0.056 -0.052,0 -0.078,-0.042 -0.013,-0.022 -0.013,-0.05 0,-0.016 0.005,-0.034 l 0.126,-0.5 0.003,-0.02 q 0,-0.011 -0.014,-0.014 -0.012,-0.003 -0.035,-0.003 -0.023,0 -0.025,-0.011 0,-0.018 0.019,-0.021 l 0.122,-0.01 q 0.013,0 0.013,0.011 z"
             id="path16" />
        </g>
      </g>
      <g
         transform="scale(25)"
         id="g20">
        <g
           transform="translate(35.8,18.871)"
           id="g19">
          <path
             fill="#000000"
             stroke="none"
             paint-order="stroke fill markers"
             d="m 0.088,-0.059 v 0 L 0.146,-0.29 q 0.016,-0.064 0.016,-0.084 0,-0.046 -0.031,-0.046 -0.041,0 -0.067,0.095 -0.003,0.011 -0.006,0.024 -0.011,0.022 -0.017,0.023 -0.012,0 -0.012,-0.01 0,-0.016 0.019,-0.068 0.006,-0.017 0.012,-0.029 0.024,-0.049 0.06,-0.056 0.007,-0.001 0.014,-0.001 0.054,0 0.08,0.045 0.01,0.019 0.012,0.042 0.064,-0.087 0.156,-0.087 0.051,0 0.082,0.026 0.028,0.024 0.032,0.071 0.068,-0.097 0.163,-0.097 0.089,0 0.11,0.069 v 0.001 q 0.005,0.017 0.005,0.037 0,0.053 -0.061,0.22 -0.018,0.044 -0.018,0.071 0,0.033 0.024,0.033 0.062,0 0.098,-0.11 l 0.004,-0.014 q 0.005,-0.016 0.01,-0.017 v -0.001 h 0.005 q 0.012,0 0.012,0.01 0,0.017 -0.021,0.063 -0.043,0.091 -0.11,0.091 -0.051,0 -0.073,-0.043 -0.009,-0.018 -0.009,-0.039 0,-0.02 0.013,-0.055 Q 0.71,-0.29 0.71,-0.35 0.71,-0.42 0.656,-0.42 0.568,-0.42 0.51,-0.325 0.494,-0.3 0.491,-0.287 0.488,-0.274 0.431,-0.046 0.42,-0.003 0.406,0.006 L 0.405,0.007 H 0.404 Q 0.397,0.011 0.386,0.011 0.361,0.006 0.357,-0.016 L 0.37,-0.075 0.39,-0.151 0.418,-0.267 q 0.015,-0.056 0.015,-0.083 0,-0.07 -0.054,-0.07 -0.09,0 -0.151,0.1 -0.007,0.011 -0.012,0.022 l -0.013,0.05 q -0.005,0.023 -0.017,0.067 l -0.022,0.09 Q 0.147,-0.022 0.145,-0.017 0.136,0.009 0.108,0.011 0.083,0.006 0.079,-0.016 q 0,0.002 0.009,-0.043 z"
             id="path18" />
        </g>
      </g>
      <g
         transform="scale(25)"
         id="g22">
        <g
           transform="translate(35.96,21.991)"
           id="g21">
          <path
             fill="#000000"
             stroke="none"
             paint-order="stroke fill markers"
             d="m 0.088,-0.059 v 0 L 0.146,-0.29 q 0.016,-0.064 0.016,-0.084 0,-0.046 -0.031,-0.046 -0.041,0 -0.067,0.095 -0.003,0.011 -0.006,0.024 -0.011,0.022 -0.017,0.023 -0.012,0 -0.012,-0.01 0,-0.016 0.02,-0.072 v -0.001 q 0,-0.001 0.001,-0.001 v -0.001 -0.001 l 0.009,-0.021 q 0.022,-0.04 0.045,-0.05 0.014,-0.007 0.03,-0.007 0.056,0 0.081,0.047 0.009,0.018 0.011,0.04 0.064,-0.087 0.156,-0.087 0.086,0 0.109,0.066 0.006,0.018 0.006,0.041 0,0.051 -0.061,0.22 -0.018,0.044 -0.018,0.071 0,0.033 0.024,0.033 0.066,0 0.102,-0.124 0.005,-0.016 0.01,-0.017 v -0.001 h 0.005 q 0.012,0 0.012,0.01 0,0.017 -0.021,0.063 -0.043,0.091 -0.11,0.091 -0.051,0 -0.073,-0.043 -0.009,-0.018 -0.009,-0.039 0,-0.02 0.01,-0.046 0.065,-0.175 0.065,-0.233 0,-0.07 -0.054,-0.07 -0.09,0 -0.151,0.1 -0.007,0.011 -0.012,0.022 l -0.013,0.05 q -0.005,0.023 -0.017,0.067 l -0.022,0.09 Q 0.147,-0.022 0.145,-0.017 0.136,0.009 0.108,0.011 0.083,0.006 0.079,-0.016 q 0,0.002 0.009,-0.043 z"
             id="path20" />
        </g>
      </g>
    </g>
  </g>
</svg>
